<svg width="62" height="62" viewBox="0 0 62 62" fill="none" xmlns="http://www.w3.org/2000/svg">
<g id="logo img">
<rect id="Rectangle 1" width="62" height="62" rx="16" fill="#24AEE5"/>
<path id="Vector 1" d="M34.7417 48.9054H12.5607L15.7676 45.164V20.845C15.7676 16.3554 17.6383 13.6295 22.7158 13.6295H34.7417C40.8883 13.6295 49.7072 19.6692 49.7072 32.0692C49.7072 44.4692 40.3538 48.9054 34.7417 48.9054Z" fill="#F9FDFF"/>
<path id="Vector 2" d="M25.6551 25.1206V40.8878H29.3965C30.6792 40.8878 30.9999 39.997 30.9999 39.5516V33.9396H34.7413C38.2154 33.9396 39.5516 32.3361 39.5516 28.0603C39.5516 22.9827 36.8792 21.9137 34.7413 21.9137H28.5948C26.0292 21.9137 25.566 24.0516 25.6551 25.1206Z" fill="#24AEE5"/>
<path id="Vector 3" d="M30.4683 27.0928L30.4683 29.577H33.262C34.3302 29.577 34.7411 29.1253 34.7411 27.9209C34.7411 26.4906 33.9194 26.1895 33.262 26.1895H31.3722C30.5833 26.1895 30.4409 26.7917 30.4683 27.0928Z" fill="#F9FDFF"/>
</g>
</svg>
